HIERARCHY
ROOT Hips
{
  OFFSET -4.35178 90.3298 111.633
  CHANNELS 6 Xposition Yposition Zposition Zrotation Xrotation Yrotation
  JOINT LeftUpLeg
  {
    OFFSET 0.103456 1.85784 10.5485
    CHANNELS 6 Xposition Yposition Zposition Zrotation Xrotation Yrotation
    JOINT LeftLeg
    {
      OFFSET 43.5 -4.2e-05 0
      CHANNELS 6 Xposition Yposition Zposition Zrotation Xrotation Yrotation
      JOINT LeftFoot
      {
        OFFSET 42.3722 1.9e-05 0
        CHANNELS 6 Xposition Yposition Zposition Zrotation Xrotation Yrotation
        JOINT LeftToe
        {
          OFFSET 17.3 0 0
          CHANNELS 6 Xposition Yposition Zposition Zrotation Xrotation Yrotation
          End Site
          {
            OFFSET 0 0 0
          }
        }
      }
    }
  }
  JOINT RightUpLeg
  {
    OFFSET 0.103456 1.85782 -10.5485
    CHANNELS 6 Xposition Yposition Zposition Zrotation Xrotation Yrotation
    JOINT RightLeg
    {
      OFFSET 43.5 -2.7e-05 0
      CHANNELS 6 Xposition Yposition Zposition Zrotation Xrotation Yrotation
      JOINT RightFoot
      {
        OFFSET 42.3723 0 0
        CHANNELS 6 Xposition Yposition Zposition Zrotation Xrotation Yrotation
        JOINT RightToe
        {
          OFFSET 17.3 0 1.7e-05
          CHANNELS 6 Xposition Yposition Zposition Zrotation Xrotation Yrotation
          End Site
          {
            OFFSET 0 0 0
          }
        }
      }
    }
  }
  JOINT Spine
  {
    OFFSET 6.90197 -2.60373 0
    CHANNELS 6 Xposition Yposition Zposition Zrotation Xrotation Yrotation
    JOINT Spine1
    {
      OFFSET 12.5881 0 0
      CHANNELS 6 Xposition Yposition Zposition Zrotation Xrotation Yrotation
      JOINT Spine2
      {
        OFFSET 12.3432 -1.8e-05 0
        CHANNELS 6 Xposition Yposition Zposition Zrotation Xrotation Yrotation
        JOINT Neck
        {
          OFFSET 25.8329 2.3e-05 0
          CHANNELS 6 Xposition Yposition Zposition Zrotation Xrotation Yrotation
          JOINT Head
          {
            OFFSET 11.7666 0 0
            CHANNELS 6 Xposition Yposition Zposition Zrotation Xrotation Yrotation
            End Site
            {
              OFFSET 0 0 0
            }
          }
        }
        JOINT LeftShoulder
        {
          OFFSET 19.7459 -1.48035 6.0001
          CHANNELS 6 Xposition Yposition Zposition Zrotation Xrotation Yrotation
          JOINT LeftArm
          {
            OFFSET 11.2841 1.8e-05 -2e-05
            CHANNELS 6 Xposition Yposition Zposition Zrotation Xrotation Yrotation
            JOINT LeftForeArm
            {
              OFFSET 33 -1.3e-05 1.9e-05
              CHANNELS 6 Xposition Yposition Zposition Zrotation Xrotation Yrotation
              JOINT LeftHand
              {
                OFFSET 25.2 3.2e-05 1.1e-05
                CHANNELS 6 Xposition Yposition Zposition Zrotation Xrotation Yrotation
                End Site
                {
                  OFFSET 0 0 0
                }
              }
            }
          }
        }
        JOINT RightShoulder
        {
          OFFSET 19.7461 -1.48036 -6.00008
          CHANNELS 6 Xposition Yposition Zposition Zrotation Xrotation Yrotation
          JOINT RightArm
          {
            OFFSET 11.2841 0 0
            CHANNELS 6 Xposition Yposition Zposition Zrotation Xrotation Yrotation
            JOINT RightForeArm
            {
              OFFSET 33.0001 1.6e-05 0
              CHANNELS 6 Xposition Yposition Zposition Zrotation Xrotation Yrotation
              JOINT RightHand
              {
                OFFSET 25.1998 0.000123 0.000432
                CHANNELS 6 Xposition Yposition Zposition Zrotation Xrotation Yrotation
                End Site
                {
                  OFFSET 0 0 0
                }
              }
            }
          }
        }
      }
    }
  }
}
MOTION
Frames:	7
Frame Time:	0.0333333
83.1594 88.937 -1.51206 86.2196 -2.0334 2.75356 0.103456 1.85784 10.5485 2.70902 -5.80467 178.656 43.5 -4.2e-05 1e-05 -12.8005 -9.31483 -1.1626 42.3722 1.9e-05 -1.77636e-15 77.552 -12.8736 10.1395 17.3 0 3e-06 21.4546 -1e-06 0.003093 0.103456 1.85782 -10.5485 8.40427 10.8396 173.868 43.5 -2.7e-05 4e-06 -1.66748 12.5984 4.16118 42.3723 0 1e-05 81.6789 22.5705 -15.8008 17.3 -6e-06 1.7e-05 21.4546 -1.9e-05 -0.003116 6.90197 -2.60373 -3e-06 8.30806 0.583212 -0.414905 12.5881 1e-05 8e-06 6.59559 1.17958 -0.893688 12.3432 -1.8e-05 -5e-06 6.26265 1.21906 -0.95134 25.8329 2.3e-05 7e-06 7.39129 4.95802 -11.1026 11.7666 -8e-06 -6e-06 0.494918 8.51694 6.05112 19.7459 -1.48035 6.0001 -178.307 6.69779 -89.5557 11.2841 1.8e-05 -2e-05 8.67339 -24.4043 36.9088 33 -1.3e-05 1.9e-05 -39.3693 16.4681 -18.8381 25.2 3.2e-05 1.1e-05 -8.79993 33.1142 1.51865 19.7461 -1.48036 -6.00008 -176.529 -8.92705 76.6537 11.2841 1.42109e-14 -1e-06 10.1998 16.5153 -22.5317 33.0001 1.6e-05 -1e-06 -28.8367 4.62219 21.9631 25.1998 0.000123 0.000432 3.92916 -9.84995 3.78533 
83.4402 88.9573 -1.51257 86.2621 -1.52551 2.82595 0.103456 1.85784 10.5485 1.52756 -5.64136 178.568 43.5 -4.2e-05 1e-05 -14.5306 -8.94914 -1.12797 42.3722 1.9e-05 0 77.7454 -12.8233 9.88274 17.3 0 3e-06 21.4546 -1e-06 0.003093 0.103456 1.85782 -10.5485 8.27709 10.7307 173.811 43.5 -2.7e-05 4e-06 -1.63767 12.6163 4.25901 42.3723 1.42109e-14 1e-05 81.7683 22.5549 -16.1593 17.3 -6e-06 1.7e-05 21.4546 -1.9e-05 -0.003116 6.90197 -2.60373 -3e-06 8.53006 0.630689 -0.41333 12.5881 1e-05 8e-06 7.03899 1.27777 -0.89996 12.3432 -1.8e-05 -5e-06 6.70468 1.32342 -0.963167 25.8329 2.3e-05 7e-06 7.20643 5.16609 -11.6206 11.7666 -8e-06 -6e-06 1.02343 9.14996 5.7647 19.7459 -1.48035 6.0001 -177.87 7.2783 -87.8521 11.2841 1.8e-05 -2e-05 7.2456 -23.0745 38.6487 33 -1.3e-05 1.9e-05 -43.2781 17.1497 -17.1217 25.2 3.2e-05 1.1e-05 -10.3528 33.8767 0.99159 19.7461 -1.48036 -6.00008 -176.476 -9.70341 74.6268 11.2841 -1.42109e-14 -1e-06 7.49481 16.5107 -25.0216 33.0001 1.6e-05 -1e-06 -28.7367 4.09391 21.5699 25.1998 0.000123 0.000432 3.4017 -9.61873 3.3395 
83.8076 88.9342 -1.47458 86.3745 -0.647141 2.95078 0.103456 1.85784 10.5485 -0.00341475 -5.5191 178.355 43.5 -4.2e-05 1e-05 -16.7323 -8.40363 -1.01818 42.3722 1.9e-05 -1.77636e-15 77.8468 -12.536 9.53299 17.3 3.55271e-15 3e-06 21.4546 -1e-06 0.003093 0.103456 1.85782 -10.5485 8.027 10.3576 173.695 43.5 -2.7e-05 4e-06 -1.682 12.6914 4.36341 42.3723 0 1e-05 81.9036 22.541 -16.5885 17.3 -6e-06 1.7e-05 21.4546 -1.9e-05 -0.003116 6.90197 -2.60373 -3e-06 8.76718 0.728186 -0.45897 12.5881 1e-05 8e-06 7.51289 1.468 -1.00916 12.3432 -1.8e-05 -5e-06 7.17622 1.51369 -1.08343 25.8329 2.3e-05 7e-06 6.87053 5.48536 -12.1265 11.7666 -8e-06 -6e-06 1.22192 9.70295 6.00193 19.7459 -1.48035 6.0001 -177.746 7.94546 -85.7472 11.2841 1.8e-05 -2e-05 3.83783 -20.1661 37.7734 33 -1.3e-05 1.9e-05 -48.4803 15.1455 -14.0983 25.2 3.2e-05 1.1e-05 -10.285 34.2683 0.308898 19.7461 -1.48036 -6.00008 -176.02 -10.3999 72.3574 11.2841 0 -1e-06 3.60587 14.5866 -26.8597 33.0001 1.6e-05 -1e-06 -29.1559 3.75789 20.7368 25.1998 0.000123 0.000432 2.96506 -9.4443 2.96581 
84.3263 88.9386 -1.31234 86.3893 0.831672 3.16184 0.103456 1.85784 10.5485 -3.02443 -4.04962 178.196 43.5 -4.2e-05 1e-05 -21.277 -7.52718 -1.27229 42.3722 1.9e-05 0 77.5785 -11.5054 8.59775 17.3 0 3e-06 21.4546 -1e-06 0.003093 0.103456 1.85782 -10.5485 7.82109 9.73301 173.548 43.5 -2.7e-05 4e-06 -1.76464 12.8921 4.40065 42.3723 0 1e-05 82.1154 22.537 -17.3252 17.3 -6e-06 1.7e-05 21.4546 -1.9e-05 -0.003116 6.90197 -2.60373 -3e-06 9.03121 0.673964 -0.364698 12.5881 1e-05 8e-06 8.04008 1.37979 -0.81477 12.3432 -1.8e-05 -5e-06 7.704 1.44569 -0.883537 25.8329 2.3e-05 7e-06 6.84562 4.64802 -11.9009 11.7666 -8e-06 -6e-06 1.32916 8.98373 5.16075 19.7459 -1.48035 6.0001 -177.497 8.60137 -84.6575 11.2841 1.8e-05 -2e-05 2.05282 -19.2004 41.1074 33 -1.3e-05 1.9e-05 -51.3218 15.5393 -12.5494 25.2 3.2e-05 1.1e-05 -12.0828 34.9368 0.110915 19.7461 -1.48036 -6.00008 -175.014 -12.5203 70.6615 11.2841 1.42109e-14 -1e-06 -0.75885 11.9342 -27.8496 33.0001 1.6e-05 -1e-06 -29.8819 3.02847 19.8281 25.1998 0.000123 0.000432 2.77122 -9.91828 3.07105 
84.8233 88.9205 -1.03321 86.5063 2.59617 3.41147 0.103456 1.85784 10.5485 -5.28859 -3.61055 177.818 43.5 -4.2e-05 1e-05 -24.376 -6.55265 -1.14914 42.3722 1.9e-05 0 77.096 -11.0297 7.80195 17.3 0 3e-06 21.4546 -1e-06 0.003093 0.103456 1.85782 -10.5485 7.6556 9.09596 173.345 43.5 -2.7e-05 4e-06 -1.72538 13.3171 4.3578 42.3723 0 1e-05 82.407 22.4787 -18.1855 17.3 -6e-06 1.7e-05 21.4546 -1.9e-05 -0.003116 6.90197 -2.60373 -3e-06 9.19545 0.612164 -0.228324 12.5881 1e-05 8e-06 8.36718 1.28293 -0.533923 12.3432 -1.8e-05 -5e-06 8.03156 1.37139 -0.597017 25.8329 2.3e-05 7e-06 7.30339 3.47026 -11.5229 11.7666 -8e-06 -6e-06 1.1539 8.00966 4.2225 19.7459 -1.48035 6.0001 -177.237 9.42598 -83.7053 11.2841 1.8e-05 -2e-05 -0.0408737 -18.1253 44.7468 33 -1.3e-05 1.9e-05 -53.0121 15.7993 -11.259 25.2 3.2e-05 1.1e-05 -14.1345 35.3953 0.120097 19.7461 -1.48036 -6.00008 -174.278 -14.675 69.6244 11.2841 1.42109e-14 -1e-06 -5.309 9.94075 -29.3024 33.0001 1.6e-05 -1e-06 -30.2183 1.26672 19.0145 25.1998 0.000123 0.000432 1.51442 -10.3483 2.77146 
85.3714 88.9049 -0.64741 86.7944 4.57059 3.67939 0.103456 1.85784 10.5485 -7.76279 -3.55708 177.284 43.5 -4.2e-05 1e-05 -27.0504 -5.68038 -0.938873 42.3722 1.9e-05 0 76.9234 -11.9632 6.98087 17.3 0 3e-06 21.4546 -1e-06 0.003093 0.103456 1.85782 -10.5485 7.35363 8.75721 173.045 43.5 -2.7e-05 4e-06 -1.71651 13.8586 4.23866 42.3723 0 1e-05 82.9274 22.7477 -19.4122 17.3 -6e-06 1.7e-05 21.4546 -1.9e-05 -0.003116 6.90197 -2.60373 -3e-06 9.2491 0.575696 -0.104439 12.5881 1e-05 8e-06 8.47309 1.23291 -0.281218 12.3432 -1.8e-05 -5e-06 8.13732 1.33871 -0.34163 25.8329 2.3e-05 7e-06 8.17345 2.39354 -11.0599 11.7666 -8e-06 -6e-06 0.617385 7.13824 3.66581 19.7459 -1.48035 6.0001 -177.01 10.3024 -82.9139 11.2841 1.8e-05 -2e-05 -2.52588 -16.6229 48.1917 33 -1.3e-05 1.9e-05 -54.1461 15.9434 -10.204 25.2 3.2e-05 1.1e-05 -15.7756 35.974 -0.0471765 19.7461 -1.48036 -6.00008 -173.717 -16.6246 69.1569 11.2841 0 -1e-06 -10.0866 7.52727 -30.7335 33.0001 1.6e-05 -1e-06 -31.5091 -0.551379 18.142 25.1998 0.000123 0.000432 -0.293013 -11.0014 3.04629 
85.8326 88.8864 -0.159142 86.9432 6.79098 3.98117 0.103456 1.85784 10.5485 -9.51173 -2.81592 176.955 43.5 -4.2e-05 1e-05 -29.1559 -5.30591 -0.981733 42.3722 1.9e-05 0 77.3701 -12.3363 6.57511 17.3 3.55271e-15 3e-06 21.4546 -1e-06 0.003093 0.103456 1.85782 -10.5485 7.32354 8.20254 172.636 43.5 -2.7e-05 4e-06 -1.66395 14.4339 4.14921 42.3723 -1.42109e-14 1e-05 83.4567 23.1894 -20.5108 17.3 -6e-06 1.7e-05 21.4546 -1.9e-05 -0.003116 6.90197 -2.60373 -3e-06 9.24234 0.52969 -0.00473119 12.5881 1e-05 8e-06 8.45891 1.15877 -0.0745457 12.3432 -1.8e-05 -5e-06 8.12343 1.27727 -0.130773 25.8329 2.3e-05 7e-06 9.24371 1.52768 -10.593 11.7666 -8e-06 -6e-06 0.206296 6.45832 3.48398 19.7459 -1.48035 6.0001 -176.697 11.125 -82.0089 11.2841 1.8e-05 -2e-05 -6.28542 -13.8913 50.6924 33 -1.3e-05 1.9e-05 -54.5958 17.3844 -9.62409 25.2 3.2e-05 1.1e-05 -19.1083 38.0029 -1.07147 19.7461 -1.48036 -6.00008 -173.546 -18.1977 68.9958 11.2841 0 -1e-06 -14.8926 4.67005 -32.1022 33.0001 1.6e-05 -1e-06 -33.7426 -2.56864 17.5172 25.1998 0.000123 0.000432 -2.23276 -12.3991 4.28697 
